<?xml version="1.0" standalone="no"?>
<!DOCTYPE svg PUBLIC "-//W3C//DTD SVG 20010904//EN"
 "http://www.w3.org/TR/2001/REC-SVG-20010904/DTD/svg10.dtd">
<svg version="1.0" xmlns="http://www.w3.org/2000/svg"
 width="200.000000pt" height="200.000000pt" viewBox="0 0 200.000000 200.000000"
 preserveAspectRatio="xMidYMid meet">

<g transform="translate(0.000000,200.000000) scale(0.100000,-0.100000)"
fill="#000000" stroke="none">
<path d="M865 1524 c-113 -65 -135 -84 -135 -116 0 -29 61 -24 90 7 22 24 28
25 142 25 93 0 123 3 134 15 20 19 39 19 58 -1 19 -18 21 -45 4 -62 -15 -15
-54 -16 -63 -2 -3 6 -42 9 -88 8 l-82 -2 75 -3 c41 -2 85 -8 97 -14 32 -17 72
-3 79 28 8 32 -5 55 -39 67 -20 7 -31 6 -45 -7 -15 -14 -40 -17 -134 -17 -109
0 -116 -1 -138 -25 -41 -44 -103 -28 -67 17 12 15 227 138 241 138 10 0 218
-120 239 -138 10 -9 17 -29 17 -49 0 -30 -3 -33 -31 -33 -19 0 -43 -10 -61
-25 -27 -23 -37 -25 -131 -25 -74 1 -107 5 -121 15 -11 8 -27 15 -35 14 -9 0
-4 -5 12 -11 15 -5 27 -14 27 -19 0 -5 51 -9 113 -9 108 0 115 1 137 25 17 18
34 25 62 25 l38 0 0 43 c0 29 -6 49 -17 59 -34 29 -232 138 -250 137 -10 0
-67 -30 -128 -65z"/>
<path d="M1284 1295 c0 -88 2 -123 3 -77 2 46 2 118 0 160 -1 42 -3 5 -3 -83z"/>
<path d="M1112 1424 c4 -21 22 -23 26 -1 2 10 -3 17 -13 17 -10 0 -15 -6 -13
-16z"/>
<path d="M702 1315 c-1 -66 -5 -131 -8 -145 -5 -19 -4 -22 5 -14 8 7 11 52 8
145 l-3 134 -2 -120z"/>
<path d="M835 1380 c-13 -14 -31 -20 -62 -20 l-43 0 0 -60 0 -60 36 0 c24 0
46 -8 66 -25 28 -23 37 -25 143 -25 65 0 116 4 120 10 9 14 48 13 63 -2 20
-20 14 -45 -15 -67 -26 -18 -26 -20 -5 -14 47 12 56 78 13 100 -20 9 -30 9
-52 -3 -44 -22 -102 -18 -127 9 -12 13 -22 27 -22 31 0 4 50 6 111 3 l112 -5
39 -39 c23 -23 37 -45 33 -54 -5 -13 -145 -104 -149 -97 -2 2 -13 18 -25 36
-26 37 -21 53 9 34 27 -16 35 -15 16 3 -11 12 -41 15 -134 15 -114 0 -120 1
-142 25 -30 32 -90 36 -90 6 0 -10 8 -28 18 -39 19 -22 230 -142 251 -142 14
0 215 114 244 138 13 12 17 31 17 94 l0 78 -33 0 c-21 0 -41 -8 -52 -20 -16
-18 -31 -20 -142 -20 -69 0 -123 -4 -123 -9 0 -16 -38 -23 -60 -11 -21 11 -28
54 -9 65 6 5 4 12 -8 21 -17 13 -16 15 12 38 17 14 25 25 19 26 -6 0 -19 -9
-29 -20z"/>
<path d="M860 1285 c0 -8 7 -15 15 -15 8 0 15 7 15 15 0 8 -7 15 -15 15 -8 0
-15 -7 -15 -15z"/>
<path d="M1110 1170 c0 -11 7 -20 15 -20 8 0 15 9 15 20 0 11 -7 20 -15 20 -8
0 -15 -9 -15 -20z"/>
<path d="M705 1131 c-3 -5 -2 -12 3 -15 5 -3 9 1 9 9 0 17 -3 19 -12 6z"/>
<path d="M736 1107 c3 -10 9 -15 12 -12 3 3 0 11 -7 18 -10 9 -11 8 -5 -6z"/>
<path d="M794 1069 c-4 -7 -3 -9 4 -5 5 3 13 0 15 -6 4 -9 6 -10 6 -1 1 17
-16 25 -25 12z"/>
<path d="M864 1029 c-4 -7 -3 -9 4 -5 5 3 13 0 15 -6 4 -9 6 -10 6 -1 1 17
-16 25 -25 12z"/>
<path d="M946 987 c3 -10 9 -15 12 -12 3 3 0 11 -7 18 -10 9 -11 8 -5 -6z"/>
<path d="M1050 755 l0 -115 30 0 30 0 0 115 0 115 -30 0 -30 0 0 -115z"/>
<path d="M646 848 c5 -7 21 -31 36 -52 15 -21 28 -43 28 -47 0 -5 -16 -31 -36
-59 l-36 -50 41 0 c23 0 41 3 41 8 0 4 7 16 16 27 14 19 15 19 37 -8 18 -24
29 -28 59 -25 l37 3 -38 50 -38 50 39 58 39 57 -38 0 c-33 0 -42 -5 -57 -31
l-19 -31 -19 31 c-17 26 -26 31 -60 31 -29 0 -37 -3 -32 -12z"/>
<path d="M910 797 c-55 -28 -63 -112 -12 -145 29 -19 96 -22 113 -5 18 18 -7
44 -35 37 -11 -2 -30 2 -41 10 -19 14 -16 15 38 16 49 0 57 3 57 19 0 33 -11
51 -41 66 -34 18 -47 18 -79 2z m60 -52 c0 -16 -35 -21 -44 -6 -8 12 4 21 26
21 10 0 18 -7 18 -15z"/>
<path d="M1167 790 c-23 -18 -27 -29 -27 -69 0 -54 23 -84 62 -82 13 0 44 0
71 0 l47 0 0 81 0 81 -37 -1 c-21 -1 -49 2 -63 5 -18 5 -34 0 -53 -15z m87
-52 c13 -21 -2 -51 -27 -56 -23 -5 -40 33 -27 59 13 23 38 22 54 -3z"/>
<path d="M790 485 l0 -115 30 0 c28 0 29 1 32 58 3 49 6 57 23 57 17 0 20 -8
23 -57 3 -57 4 -58 32 -58 30 0 30 1 30 54 0 30 -4 66 -10 80 -11 30 -49 42
-79 26 -20 -10 -21 -8 -21 30 0 38 -2 40 -30 40 l-30 0 0 -115z"/>
<path d="M240 480 l0 -110 85 0 c84 0 85 0 85 25 0 24 -3 25 -55 25 -42 0 -55
3 -55 15 0 11 12 15 45 15 41 0 45 2 45 25 0 23 -4 25 -46 25 -38 0 -45 3 -42
18 2 13 15 18 51 20 42 3 47 5 47 28 0 23 -2 24 -80 24 l-80 0 0 -110z"/>
<path d="M664 530 c-12 -5 -29 -19 -38 -32 -50 -71 31 -162 114 -128 25 10 28
15 19 31 -7 13 -19 18 -40 16 -21 -1 -35 4 -43 16 -16 26 5 53 40 50 27 -2 54
11 54 27 0 9 -56 30 -74 29 -6 0 -21 -4 -32 -9z"/>
<path d="M1023 530 c-28 -12 -43 -40 -43 -83 0 -49 28 -80 71 -79 19 0 51 1
72 1 l37 0 0 81 0 81 -37 -1 c-21 -1 -47 1 -58 4 -11 3 -30 1 -42 -4z m72 -80
c0 -31 -3 -35 -25 -35 -19 0 -26 6 -28 23 -5 36 5 54 30 50 19 -2 23 -9 23
-38z"/>
<path d="M1286 533 c-3 -4 -24 -6 -46 -5 l-40 3 0 -81 0 -80 30 0 c28 0 29 1
32 58 3 49 6 57 23 57 17 0 20 -8 23 -57 3 -57 4 -58 32 -58 l30 0 0 65 c0 52
-4 69 -20 85 -20 20 -50 26 -64 13z"/>
<path d="M1433 530 c-49 -20 -58 -95 -17 -137 21 -21 32 -24 60 -20 29 5 35 3
32 -11 -3 -13 -14 -17 -47 -18 -55 -1 -77 -28 -36 -44 42 -16 90 -12 119 11
25 20 26 24 26 120 l0 100 -32 -2 c-18 -1 -44 1 -58 4 -14 3 -35 2 -47 -3z
m77 -60 c20 -38 -19 -77 -48 -48 -23 23 -7 68 25 68 7 0 17 -9 23 -20z"/>
<path d="M1645 528 c-31 -18 -44 -40 -45 -74 0 -65 69 -109 130 -84 25 10 27
14 17 31 -8 13 -19 18 -33 15 -11 -3 -29 1 -40 9 -17 13 -14 14 39 15 l57 0
-6 28 c-13 54 -75 86 -119 60z m63 -55 c2 -8 -6 -13 -22 -13 -25 0 -33 10 -19
24 10 10 36 3 41 -11z"/>
<path d="M456 491 l26 -40 -26 -38 -26 -38 31 -3 c21 -2 35 2 44 15 13 17 14
17 20 1 5 -12 18 -18 41 -18 19 0 34 3 34 7 0 3 -11 21 -25 39 l-26 34 26 37
25 38 -31 3 c-20 2 -35 -2 -43 -14 -12 -15 -13 -15 -19 0 -4 11 -18 16 -42 16
l-35 0 26 -39z"/>
</g>
</svg>
